#!OML:ASF E:\inclinewalkrobotboard\Project 1\Capture day 1\Session 1\subject1.ASF
:FULLY-SPECIFIED
:DEGREES
288
root 9.29339 16.5175 0.47838 -137.184 -56.1282 -201.392
lowerback 7.68544 3.53757 4.26884
upperback 0.948462 5.03598 1.07961
thorax -3.04376 2.43027 -1.76823
lowerneck -2.4892 11.2807 3.82892
upperneck -4.07915 14.6716 -20.5365
head 1.11703 7.23148 -6.33998
rclavicle -9.85972e-014 -7.95139e-014
rhumerus -16.8693 38.2245 -103.962
rradius 97.5534
rwrist 7.23319
rhand -18.0191 -34.3296
rfingers 7.12502
rthumb 8.25191 -64.1484
lclavicle -9.85972e-014 -7.95139e-014
lhumerus -40.4431 41.4208 45.2539
lradius 52.8574
lwrist 40.0012
lhand -53.1998 -31.1292
lfingers 7.12502
lthumb -25.6571 -2.83801
rfemur -37.1228 4.33854 -2.70682
rtibia 25.018
rfoot -13.8392 -5.44952
rtoes -29.3529
lfemur -8.55215 -11.6555 -7.51326
ltibia 7.78434
lfoot -37.5691 17.7836
ltoes 25.8755
289
root 9.29498 16.5225 0.471543 -137.602 -55.8515 -201.239
lowerback 8.0193 3.60423 4.10748
upperback 1.0113 5.12389 1.08897
thorax -3.17429 2.47202 -1.69938
lowerneck -2.48979 11.2252 3.95278
upperneck -4.05615 14.5969 -20.6638
head 1.13563 7.18998 -6.40083
rclavicle -5.24792e-014 -2.54444e-014
rhumerus -16.9127 38.44 -103.628
rradius 97.3502
rwrist 7.00754
rhand -18.1874 -34.1669
rfingers 7.12502
rthumb 8.08951 -63.9921
lclavicle -5.24792e-014 -2.54444e-014
lhumerus -40.5115 41.4552 45.2349
lradius 52.9174
lwrist 40.0395
lhand -53.1841 -31.4456
lfingers 7.12502
lthumb -25.642 -3.15227
rfemur -36.9353 4.52082 -2.65744
rtibia 25.0235
rfoot -13.7907 -5.34918
rtoes -30.6802
lfemur -8.07257 -11.6777 -7.68779
ltibia 7.66865
lfoot -37.6346 17.8997
ltoes 25.3116
290
root 9.29511 16.5222 0.468534 -137.71 -55.72 -201.229
lowerback 8.08818 3.58468 3.93866
upperback 1.03286 5.08699 1.15841
thorax -3.2134 2.45464 -1.53567
lowerneck -2.50877 11.221 4.02618
upperneck -4.01713 14.5948 -20.8551
head 1.17253 7.1815 -6.46673
rclavicle -3.18055e-015 -1.27222e-014
rhumerus -17.6102 39.206 -103.013
rradius 97.4011
rwrist 6.46089
rhand -18.976 -33.8391
rfingers 7.12502
rthumb 7.32832 -63.6921
lclavicle -3.18055e-015 -1.27222e-014
lhumerus -40.8052 41.6129 45.1237
lradius 53.001
lwrist 39.9923
lhand -53.2977 -31.7092
lfingers 7.12502
lthumb -25.7509 -3.43157
rfemur -36.8551 4.53822 -2.66397
rtibia 24.9903
rfoot -13.7906 -5.30421
rtoes -31.234
lfemur -7.91047 -11.7062 -7.78329
ltibia 7.6423
lfoot -37.6049 18.0254
ltoes 25.03
291
root 9.29408 16.5159 0.474148 -137.375 -55.8412 -201.397
lowerback 7.76115 3.37275 3.71038
upperback 0.999418 4.77775 1.38225
thorax -3.11999 2.30637 -1.12913
lowerneck -2.5016 11.3487 4.05818
upperneck -4.06397 14.7581 -21.2575
head 1.21667 7.25777 -6.58203
rclavicle 1.59028e-014 -5.08889e-014
rhumerus -17.9346 40.1421 -102.764
rradius 97.5345
rwrist 6.0252
rhand -19.195 -33.8285
rfingers 7.12502
rthumb 7.11689 -63.6889
lclavicle 1.59028e-014 -5.08889e-014
lhumerus -41.5699 42.0334 44.7141
lradius 53.1186
lwrist 39.9492
lhand -53.3702 -31.5558
lfingers 7.12502
lthumb -25.8204 -3.28825
rfemur -36.9695 4.31771 -2.74239
rtibia 24.9493
rfoot -13.8491 -5.29971
rtoes -30.5696
lfemur -8.26937 -11.7323 -7.7195
ltibia 7.77891
lfoot -37.5976 17.8695
ltoes 25.4463
292
root 9.29142 16.5019 0.494995 -135.992 -56.349 -202.084
lowerback 6.79391 3.1553 4.25098
upperback 0.791407 4.49354 1.18712
thorax -2.75113 2.16974 -1.54771
lowerneck -2.57689 11.3011 4.10444
upperneck -3.99268 14.7075 -21.0924
head 1.23257 7.22668 -6.5363
rclavicle -3.49861e-014 -1.59028e-014
rhumerus -17.8346 40.0202 -103.133
rradius 97.6617
rwrist 6.08949
rhand -18.9519 -34.0188
rfingers 7.12502
rthumb 7.35154 -63.871
lclavicle -3.49861e-014 -1.59028e-014
lhumerus -41.3324 41.9352 44.6649
lradius 53.0655
lwrist 39.9603
lhand -53.5181 -31.4175
lfingers 7.12502
lthumb -25.962 -3.17071
rfemur -37.5707 3.48147 -3.03156
rtibia 24.9965
rfoot -13.9563 -5.41332
rtoes -29.3779
lfemur -9.70134 -11.8639 -7.47802
ltibia 8.28974
lfoot -37.3726 17.8303
ltoes 25.8499
293
root 9.29536 16.5037 0.482197 -136.489 -56.1132 -201.676
lowerback 6.89972 3.18783 3.85798
upperback 0.849576 4.51304 1.40516
thorax -2.79692 2.18198 -1.1131
lowerneck -2.7659 11.4487 3.52884
upperneck -3.85695 14.9374 -20.7224
head 1.25327 7.32908 -6.30792
rclavicle -3.97569e-014 9.22361e-014
rhumerus -17.5811 40.3771 -102.818
rradius 97.4845
rwrist 5.98962
rhand -18.6689 -33.9028
rfingers 7.12502
rthumb 7.62471 -63.7453
lclavicle -3.97569e-014 9.22361e-014
lhumerus -41.6849 42.1027 44.5506
lradius 53.0984
lwrist 39.9783
lhand -53.5833 -31.1523
lfingers 7.12502
lthumb -26.0244 -2.91461
rfemur -37.537 3.92083 -2.91993
rtibia 24.9655
rfoot -13.9408 -5.38999
rtoes -29.2616
lfemur -9.33544 -11.5268 -7.43149
ltibia 8.15115
lfoot -37.3581 17.6754
ltoes 26.0841
294
root 9.2966 16.504 0.477448 -136.712 -56.0063 -201.546
lowerback 6.99441 3.28608 4.00587
upperback 0.870749 4.65619 1.31381
thorax -2.80191 2.25132 -1.30562
lowerneck -2.7648 11.3662 3.28015
upperneck -3.86646 14.8216 -20.3932
head 1.1872 7.27853 -6.18223
rclavicle 3.18055e-015 -1.27222e-014
rhumerus -17.3911 40.0692 -102.605
rradius 97.3662
rwrist 6.06963
rhand -18.1844 -33.7502
rfingers 7.12502
rthumb 8.09232 -63.5752
lclavicle 3.18055e-015 -1.27222e-014
lhumerus -41.273 41.9068 44.7939
lradius 52.9585
lwrist 39.9282
lhand -53.5184 -31.0756
lfingers 7.12502
lthumb -25.9623 -2.82887
rfemur -37.4504 4.04478 -2.86059
rtibia 24.9234
rfoot -13.8964 -5.3289
rtoes -29.438
lfemur -9.12819 -11.3715 -7.44602
ltibia 8.07955
lfoot -37.1898 17.8314
ltoes 26.054
295
root 9.29811 16.5033 0.474254 -136.824 -55.9526 -201.489
lowerback 6.98708 3.26179 3.78853
upperback 0.895688 4.60817 1.48381
thorax -2.80562 2.22914 -1.00584
lowerneck -2.65481 11.4099 3.17396
upperneck -3.94936 14.8629 -20.5216
head 1.1524 7.30796 -6.21133
rclavicle -3.02153e-014 2.54444e-014
rhumerus -17.3768 40.3784 -102.39
rradius 97.3435
rwrist 6.05081
rhand -18.0209 -33.8956
rfingers 7.12502
rthumb 8.25013 -63.7145
lclavicle -3.02153e-014 2.54444e-014
lhumerus -41.577 42.1202 44.7473
lradius 52.9657
lwrist 39.9027
lhand -53.457 -31.2809
lfingers 7.12502
lthumb -25.9034 -3.0255
rfemur -37.3833 4.14758 -2.85738
rtibia 24.8891
rfoot -13.9511 -5.27707
rtoes -28.8775
lfemur -9.0409 -11.3117 -7.44653
ltibia 8.06182
lfoot -37.0415 18.1345
ltoes 25.6458
296
root 9.30153 16.5037 0.472286 -136.949 -55.8928 -201.41
lowerback 6.98234 3.24852 3.59612
upperback 0.942963 4.575 1.62258
thorax -2.78195 2.2147 -0.752405
lowerneck -2.93726 11.5361 2.64584
upperneck -3.74786 15.0795 -20.1278
head 1.2063 7.39506 -5.97875
rclavicle 4.77083e-014 -2.22639e-014
rhumerus -17.4193 40.6964 -102.302
rradius 97.1795
rwrist 6.46663
rhand -18.6637 -33.6315
rfingers 7.12502
rthumb 7.62976 -63.4738
lclavicle 4.77083e-014 -2.22639e-014
lhumerus -41.8588 42.3023 44.741
lradius 53.0867
lwrist 39.9369
lhand -53.3874 -31.4061
lfingers 7.12502
lthumb -25.8368 -3.14099
rfemur -37.361 4.26453 -2.84192
rtibia 24.8745
rfoot -13.9493 -5.34551
rtoes -29.0897
lfemur -8.98386 -11.3132 -7.43326
ltibia 8.08181
lfoot -36.9688 18.4951
ltoes 24.8925
297
root 9.30545 16.5047 0.473072 -137.096 -55.8663 -201.31
lowerback 7.01349 3.28941 3.63452
upperback 0.983237 4.63083 1.63294
thorax -2.75336 2.24223 -0.768127
lowerneck -2.74557 11.4024 3.20217
upperneck -4.00735 14.8422 -20.64
head 1.1613 7.29251 -6.24818
rclavicle -2.38542e-014 1.59028e-014
rhumerus -17.3812 40.6699 -102.282
rradius 96.9494
rwrist 7.00324
rhand -19.2433 -32.9196
rfingers 7.12502
rthumb 7.07034 -62.7815
lclavicle -2.38542e-014 1.59028e-014
lhumerus -41.7187 42.3066 44.8878
lradius 53.0782
lwrist 39.9282
lhand -53.384 -31.3407
lfingers 7.12502
lthumb -25.8335 -3.07511
rfemur -37.3565 4.29751 -2.75449
rtibia 24.8991
rfoot -13.8805 -5.41032
rtoes -29.8563
lfemur -8.94456 -11.2919 -7.38989
ltibia 8.1258
lfoot -36.9066 18.6876
ltoes 24.6943
